<svg width="24" height="24" viewBox="0 0 24 24" fill="none" xmlns="http://www.w3.org/2000/svg">
<g clip-path="url(#clip0_846_605)">
<g filter="url(#filter0_d_846_605)">
<path d="M6.76 4.83999L4.96 3.04999L3.55 4.45999L5.34 6.24999L6.76 4.83999ZM4 10.5H1V12.5H4V10.5ZM13 0.549988H11V3.49999H13V0.549988V0.549988ZM20.45 4.45999L19.04 3.04999L17.25 4.83999L18.66 6.24999L20.45 4.45999ZM17.24 18.16L19.03 19.96L20.44 18.55L18.64 16.76L17.24 18.16ZM20 10.5V12.5H23V10.5H20ZM12 5.49999C8.69 5.49999 6 8.18999 6 11.5C6 14.81 8.69 17.5 12 17.5C15.31 17.5 18 14.81 18 11.5C18 8.18999 15.31 5.49999 12 5.49999ZM11 22.45H13V19.5H11V22.45ZM3.55 18.54L4.96 19.95L6.75 18.15L5.34 16.74L3.55 18.54Z" fill="#111111"/>
<path d="M4.25711 4.45999L4.96098 3.75611L6.05065 4.83972L5.34125 5.54413L4.25711 4.45999ZM1.5 12V11H3.5V12H1.5ZM11.5 2.99999V1.04999H12.5V2.99999H11.5ZM19.04 3.75709L19.7429 4.45999L18.66 5.54288L17.9571 4.83999L19.04 3.75709ZM19.7319 18.551L19.031 19.2519L17.9461 18.161L18.641 17.4661L19.7319 18.551ZM22.5 12H20.5V11H22.5V12ZM6.5 11.5C6.5 8.46613 8.96614 5.99999 12 5.99999C15.0339 5.99999 17.5 8.46613 17.5 11.5C17.5 14.5338 15.0339 17 12 17C8.96614 17 6.5 14.5338 6.5 11.5ZM12.5 20V21.95H11.5V20H12.5ZM6.04388 18.151L4.95901 19.2419L4.25612 18.539L5.34099 17.4481L6.04388 18.151Z" stroke="black"/>
</g>
</g>
<defs>
<filter id="filter0_d_846_605" x="-3" y="0.549988" width="30" height="29.9" filterUnits="userSpaceOnUse" color-interpolation-filters="sRGB">
<feFlood flood-opacity="0" result="BackgroundImageFix"/>
<feColorMatrix in="SourceAlpha" type="matrix" values="0 0 0 0 0 0 0 0 0 0 0 0 0 0 0 0 0 0 127 0" result="hardAlpha"/>
<feOffset dy="4"/>
<feGaussianBlur stdDeviation="2"/>
<feComposite in2="hardAlpha" operator="out"/>
<feColorMatrix type="matrix" values="0 0 0 0 0 0 0 0 0 0 0 0 0 0 0 0 0 0 0.25 0"/>
<feBlend mode="normal" in2="BackgroundImageFix" result="effect1_dropShadow_846_605"/>
<feBlend mode="normal" in="SourceGraphic" in2="effect1_dropShadow_846_605" result="shape"/>
</filter>
<clipPath id="clip0_846_605">
<rect width="24" height="24" fill="white"/>
</clipPath>
</defs>
</svg>
