<svg width="144" height="144" viewBox="0 0 144 144" fill="none" xmlns="http://www.w3.org/2000/svg">
<g filter="url(#filter0_d_861_508)">
<path d="M71.9264 -3.05176e-05L85.1835 35.9209L119.958 19.8952L103.932 54.6693L139.853 67.9264L103.932 81.1835L119.958 115.958L85.1835 99.9318L71.9264 135.853L58.6693 99.9318L23.8952 115.958L39.9209 81.1835L4 67.9264L39.9209 54.6693L23.8952 19.8952L58.6693 35.9209L71.9264 -3.05176e-05Z" fill="white"/>
<path d="M85.6021 36.8291L117.915 21.9374L103.024 54.2507L102.571 55.233L103.586 55.6074L136.965 67.9264L103.586 80.2453L102.571 80.6198L103.024 81.602L117.915 113.915L85.6021 99.0236L84.6198 98.571L84.2454 99.5856L71.9264 132.965L59.6075 99.5856L59.233 98.571L58.2508 99.0236L25.9375 113.915L40.8291 81.602L41.2818 80.6198L40.2672 80.2453L6.88821 67.9264L40.2672 55.6074L41.2818 55.233L40.8291 54.2507L25.9375 21.9374L58.2508 36.8291L59.233 37.2818L59.6075 36.2671L71.9264 2.88818L84.2454 36.2671L84.6198 37.2818L85.6021 36.8291Z" stroke="#020202" stroke-width="2"/>
</g>
<defs>
<filter id="filter0_d_861_508" x="0" y="-3.05176e-05" width="143.853" height="143.853" filterUnits="userSpaceOnUse" color-interpolation-filters="sRGB">
<feFlood flood-opacity="0" result="BackgroundImageFix"/>
<feColorMatrix in="SourceAlpha" type="matrix" values="0 0 0 0 0 0 0 0 0 0 0 0 0 0 0 0 0 0 127 0" result="hardAlpha"/>
<feOffset dy="4"/>
<feGaussianBlur stdDeviation="2"/>
<feComposite in2="hardAlpha" operator="out"/>
<feColorMatrix type="matrix" values="0 0 0 0 0 0 0 0 0 0 0 0 0 0 0 0 0 0 0.25 0"/>
<feBlend mode="normal" in2="BackgroundImageFix" result="effect1_dropShadow_861_508"/>
<feBlend mode="normal" in="SourceGraphic" in2="effect1_dropShadow_861_508" result="shape"/>
</filter>
</defs>
</svg>
