<svg width="527" height="585" viewBox="0 0 527 585" fill="none" xmlns="http://www.w3.org/2000/svg">
<g filter="url(#filter0_d_832_1575)">
<path d="M0 25.7769C0 11.9517 11.2076 0.744141 25.0328 0.744141H483.967C497.792 0.744141 509 11.9517 509 25.7769V541.035C509 554.86 497.792 566.068 483.967 566.068H25.0328C11.2076 566.068 0 554.86 0 541.035V25.7769Z" fill="#5B57EB"/>
<path d="M1 25.7769C1 12.504 11.7598 1.74414 25.0328 1.74414H483.967C497.24 1.74414 508 12.504 508 25.7769V541.035C508 554.308 497.24 565.068 483.967 565.068H25.0328C11.7598 565.068 1 554.308 1 541.035V25.7769Z" stroke="#333333" stroke-width="2"/>
</g>
<defs>
<filter id="filter0_d_832_1575" x="0" y="0.744141" width="527" height="583.324" filterUnits="userSpaceOnUse" color-interpolation-filters="sRGB">
<feFlood flood-opacity="0" result="BackgroundImageFix"/>
<feColorMatrix in="SourceAlpha" type="matrix" values="0 0 0 0 0 0 0 0 0 0 0 0 0 0 0 0 0 0 127 0" result="hardAlpha"/>
<feOffset dx="18" dy="18"/>
<feComposite in2="hardAlpha" operator="out"/>
<feColorMatrix type="matrix" values="0 0 0 0 0.253581 0 0 0 0 0.241875 0 0 0 0 0.675 0 0 0 1 0"/>
<feBlend mode="normal" in2="BackgroundImageFix" result="effect1_dropShadow_832_1575"/>
<feBlend mode="normal" in="SourceGraphic" in2="effect1_dropShadow_832_1575" result="shape"/>
</filter>
</defs>
</svg>
