<svg width="651" height="469" viewBox="0 0 651 469" fill="none" xmlns="http://www.w3.org/2000/svg">
<rect x="1" y="1" width="22" height="22" fill="white" stroke="#333333" stroke-width="2"/>
<rect x="1" y="408" width="22" height="22" fill="white" stroke="#333333" stroke-width="2"/>
<rect x="628" y="408" width="22" height="22" fill="white" stroke="#333333" stroke-width="2"/>
<rect x="628" y="1" width="22" height="22" fill="white" stroke="#333333" stroke-width="2"/>
<path fill-rule="evenodd" clip-rule="evenodd" d="M573.184 450.7L583.663 461.178C585.445 462.961 585.445 465.879 583.663 467.662C581.88 469.445 578.963 469.445 577.18 467.662L566.7 457.181L561.62 463.911C560.775 465.031 559.038 464.799 558.516 463.496L546.07 432.404C545.486 430.944 546.948 429.482 548.408 430.067L579.499 442.515C580.803 443.037 581.035 444.772 579.914 445.619L573.185 450.698L573.184 450.7Z" fill="#111111"/>
<path d="M530.336 416.623C529.703 415.99 529.703 414.966 530.336 414.334C530.969 413.703 531.992 413.703 532.623 414.334L542.54 424.25C543.171 424.881 543.171 425.905 542.54 426.538C541.907 427.17 540.883 427.17 540.251 426.538L530.336 416.623Z" fill="#111111"/>
<path d="M546.426 408.617C546.426 407.724 547.149 407 548.044 407C548.937 407 549.661 407.724 549.661 408.617V422.64C549.661 423.533 548.937 424.256 548.044 424.256C547.15 424.256 546.426 423.533 546.426 422.64V408.617Z" fill="#111111"/>
<path d="M563.466 414.334C564.098 413.703 565.122 413.703 565.753 414.334C566.386 414.966 566.386 415.99 565.753 416.623L555.838 426.538C555.207 427.17 554.182 427.17 553.551 426.538C552.918 425.905 552.918 424.881 553.551 424.25L563.466 414.334Z" fill="#111111"/>
<path d="M524.618 433.66C523.725 433.66 523 432.935 523 432.042C523 431.149 523.725 430.423 524.618 430.423H538.64C539.535 430.423 540.259 431.149 540.259 432.042C540.259 432.935 539.535 433.66 538.64 433.66H524.618Z" fill="#111111"/>
<path d="M532.623 449.753C531.992 450.384 530.968 450.384 530.336 449.753C529.703 449.12 529.703 448.097 530.336 447.464L540.251 437.549C540.884 436.918 541.907 436.918 542.54 437.549C543.171 438.182 543.171 439.205 542.54 439.838L532.623 449.753Z" fill="#111111"/>
<path d="M323.584 143.673C293.126 114.582 259.654 100.194 248.822 111.535C237.99 122.876 253.9 155.652 284.358 184.743C301.427 201.046 318.981 210.37 323.567 205.569C328.152 200.768 318.032 183.66 300.963 167.357C270.505 138.267 237.033 123.878 226.201 135.219C215.369 146.561 231.278 179.337 261.736 208.427C278.805 224.73 296.36 234.055 300.946 229.254C305.531 224.453 295.411 207.345 278.341 191.042C247.884 161.951 214.358 147.619 203.46 159.03C192.561 170.44 208.416 203.273 238.874 232.364C255.943 248.667 273.498 257.991 278.084 253.19C282.669 248.389 272.548 231.281 255.479 214.978C225.021 185.888 191.55 171.499 180.718 182.84C169.886 194.181 185.796 226.957 216.253 256.047C233.323 272.351 250.877 281.676 255.462 276.875C260.048 272.074 249.927 254.965 232.858 238.662C202.401 209.572 168.929 195.184 158.096 206.525C147.264 217.866 163.174 250.642 193.632 279.732C210.701 296.035 228.256 305.36 232.841 300.559C237.426 295.758 227.306 278.65 210.237 262.347C179.779 233.256 146.307 218.868 135.476 230.209C124.644 241.55 140.553 274.326 171.01 303.417C188.08 319.72 205.634 329.044 210.22 324.243C214.805 319.443 204.685 302.335 187.615 286.032C157.158 256.941 123.632 242.609 112.734 254.019C101.836 265.43 117.691 298.263 148.149 327.353" stroke="white" stroke-opacity="0.8" stroke-width="2" stroke-linecap="round"/>
<path d="M470 225L470.013 290.935L495.257 230.024L470.037 290.945L516.669 244.331L470.055 290.963L530.976 265.743L470.065 290.987L536 291L470.065 291.013L530.976 316.257L470.055 291.037L516.669 337.669L470.037 291.055L495.257 351.976L470.013 291.065L470 357L469.987 291.065L444.743 351.976L469.963 291.055L423.331 337.669L469.945 291.037L409.024 316.257L469.935 291.013L404 291L469.935 290.987L409.024 265.743L469.945 290.963L423.331 244.331L469.963 290.945L444.743 230.024L469.987 290.935L470 225Z" stroke="white" stroke-opacity="0.8" stroke-width="2"/>
<path fill-rule="evenodd" clip-rule="evenodd" d="M148 117C147.916 93.8326 129.144 75.0778 106 75.0778C129.196 75.0778 148 56.2387 148 33C148.084 56.1674 166.856 74.9222 190 74.9222C166.804 74.9222 148 93.7613 148 117Z" fill="white" fill-opacity="0.8"/>
</svg>
