<svg width="160" height="168" viewBox="0 0 160 168" fill="none" xmlns="http://www.w3.org/2000/svg">
<g filter="url(#filter0_d_805_503)">
<path d="M76.067 4.21635C76.8755 -0.144872 83.1245 -0.144874 83.933 4.21635L90.1066 37.5196C90.6849 40.6393 94.4913 41.8761 96.7929 39.6921L121.363 16.378C124.58 13.3249 129.636 16.998 127.726 21.0015L113.146 51.5732C111.78 54.437 114.132 57.6749 117.278 57.2609L150.859 52.8411C155.257 52.2623 157.188 58.2055 153.29 60.3221L123.524 76.4848C120.736 77.9989 120.736 82.0011 123.524 83.5152L153.29 99.6779C157.188 101.795 155.257 107.738 150.859 107.159L117.278 102.739C114.132 102.325 111.78 105.563 113.146 108.427L127.726 138.999C129.636 143.002 124.58 146.675 121.363 143.622L96.7929 120.308C94.4913 118.124 90.6849 119.361 90.1066 122.48L83.933 155.784C83.1245 160.145 76.8755 160.145 76.067 155.784L69.8934 122.48C69.3151 119.361 65.5087 118.124 63.2071 120.308L38.6373 143.622C35.4198 146.675 30.3642 143.002 32.2736 138.998L46.8542 108.427C48.2201 105.563 45.8676 102.325 42.7219 102.739L9.14083 107.159C4.74322 107.738 2.81216 101.795 6.7101 99.6779L36.4756 83.5152C39.264 82.0011 39.264 77.9989 36.4756 76.4848L6.7101 60.3221C2.81216 58.2055 4.74323 52.2623 9.14083 52.8411L42.7219 57.2609C45.8676 57.6749 48.2201 54.437 46.8542 51.5732L32.2736 21.0015C30.3642 16.998 35.4198 13.3249 38.6373 16.378L63.2071 39.6921C65.5087 41.8761 69.3151 40.6393 69.8934 37.5196L76.067 4.21635Z" fill="#FFDE81"/>
</g>
<defs>
<filter id="filter0_d_805_503" x="0.606934" y="0.945312" width="158.786" height="166.109" filterUnits="userSpaceOnUse" color-interpolation-filters="sRGB">
<feFlood flood-opacity="0" result="BackgroundImageFix"/>
<feColorMatrix in="SourceAlpha" type="matrix" values="0 0 0 0 0 0 0 0 0 0 0 0 0 0 0 0 0 0 127 0" result="hardAlpha"/>
<feOffset dy="4"/>
<feGaussianBlur stdDeviation="2"/>
<feComposite in2="hardAlpha" operator="out"/>
<feColorMatrix type="matrix" values="0 0 0 0 0 0 0 0 0 0 0 0 0 0 0 0 0 0 0.25 0"/>
<feBlend mode="normal" in2="BackgroundImageFix" result="effect1_dropShadow_805_503"/>
<feBlend mode="normal" in="SourceGraphic" in2="effect1_dropShadow_805_503" result="shape"/>
</filter>
</defs>
</svg>
